# 3ds Max Wavefront OBJ Exporter v0.99 - (c)2007 guruware
# File Created: 15.02.2023 13:45:50

mtllib Box001.mtl

#
# object Box001
#

v  1.418091 0.000000 -27.919281
v  51.279854 0.000000 -27.919281
v  1.418091 0.000000 -84.841774
v  51.279854 0.000000 -84.841774
v  1.418091 32.798042 -27.919281
v  51.279854 32.798042 -27.919281
v  1.418091 32.798042 -84.841774
v  51.279854 32.798042 -84.841774
# 8 vertices

vn -0.577350 -0.577350 0.577350
vn -0.577350 -0.577350 -0.577350
vn 0.577350 -0.577350 -0.577350
vn 0.577350 -0.577350 0.577350
vn -0.577350 0.577350 0.577350
vn 0.577350 0.577350 0.577350
vn 0.577350 0.577350 -0.577350
vn -0.577350 0.577350 -0.577350
vn -0.577350 -0.577350 0.577350
vn 0.577350 -0.577350 0.577350
vn 0.577350 0.577350 0.577350
vn -0.577350 0.577350 0.577350
vn 0.577350 -0.577350 0.577350
vn 0.577350 -0.577350 -0.577350
vn 0.577350 0.577350 -0.577350
vn 0.577350 0.577350 0.577350
vn 0.577350 -0.577350 -0.577350
vn -0.577350 -0.577350 -0.577350
vn -0.577350 0.577350 -0.577350
vn 0.577350 0.577350 -0.577350
vn -0.577350 -0.577350 -0.577350
vn -0.577350 -0.577350 0.577350
vn -0.577350 0.577350 0.577350
vn -0.577350 0.577350 -0.577350
# 24 vertex normals

vt 0.000000 0.000000 0.000000
vt 1.000000 0.000000 0.000000
vt 0.000000 1.000000 0.000000
vt 1.000000 1.000000 0.000000
vt 0.000000 0.000000 0.000000
vt 1.000000 0.000000 0.000000
vt 0.000000 1.000000 0.000000
vt 1.000000 1.000000 0.000000
vt 0.000000 0.000000 0.000000
vt 1.000000 0.000000 0.000000
vt 0.000000 1.000000 0.000000
vt 1.000000 1.000000 0.000000
vt 0.000000 0.000000 0.000000
vt 1.000000 0.000000 0.000000
vt 0.000000 1.000000 0.000000
vt 1.000000 1.000000 0.000000
vt 0.000000 0.000000 0.000000
vt 1.000000 0.000000 0.000000
vt 0.000000 1.000000 0.000000
vt 1.000000 1.000000 0.000000
vt 0.000000 0.000000 0.000000
vt 1.000000 0.000000 0.000000
vt 0.000000 1.000000 0.000000
vt 1.000000 1.000000 0.000000
# 24 texture coords

o Box001
g Box001
usemtl wire_224086086
s 2
f 1/22/1 3/24/2 4/23/3 2/21/4 
s 4
f 5/17/5 6/18/6 8/20/7 7/19/8 
s 8
f 1/13/9 2/14/10 6/16/11 5/15/12 
s 16
f 2/1/13 4/2/14 8/4/15 6/3/16 
s 32
f 4/9/17 3/10/18 7/12/19 8/11/20 
s 64
f 3/5/21 1/6/22 5/8/23 7/7/24 
# 6 polygons

